<svg xmlns="http://www.w3.org/2000/svg" width="1100" height="975" viewBox="0 0 1100 975"><defs><style>.a{fill:#9eaf56;}.b{fill:#ea6852;}.c{fill:#222;}.d{fill:#638c1c;}.e{fill:#8dc6e8;}.f{fill:#004987;}.g,.h{fill:none;stroke:#000;stroke-miterlimit:10;stroke-width:4px;}.h{stroke-linecap:round;}</style></defs><title>vanlig</title><polygon class="a" points="132.436 847.154 106.07 847.406 78.616 847.406 56.674 846.326 30.784 845.501 17.241 847.086 13.168 849.826 14.817 853.435 21.731 855.687 32.864 857.559 38.439 859.8 41.511 864.938 40.901 869.109 37.134 874.466 34.299 878.857 34.864 882.938 38.118 885.281 46.607 886.63 52.752 887.295 55.94 890.064 57.18 894.486 54.926 899.122 52.029 904.142 52.437 908.123 55.239 909.618 60.446 908.819 73.563 903.016 86.677 897.39 109.608 891.057 140.271 883.491 166.108 878.237 197.687 871.77 219.543 867.707 246.419 864.077 272.829 862.901 288.531 863.327 293.792 862.379 298.772 858.611 301.024 850.3 300.163 841.914 294.109 831.642 289.044 824.165 287.794 818.663 290.474 811.53 298.373 792.94 302.8 781.132 307.276 768.438 310.941 755.982 312.646 748.242 313.83 741.359 312.759 736.055 312.93 731.102 317.697 723.358 326.542 713.759 340.33 700.803 354.321 689.22 362.093 683.906 371.735 679.218 378.779 678.431 387.583 680.85 399.498 687.805 413.692 696.647 429.986 705.257 455.95 715.555 482.324 723.222 510.626 729.751 534.662 733.117 551.32 733.912 560.832 733.718 555.594 721.636 551.851 712.829 544.607 700.361 537.652 688.887 532.238 679.798 529.174 675.627 522.189 680.789 513.557 686.903 503.846 692.897 495.934 697.333 489.46 702.128 481.907 705.965 477.003 706.425 470.127 704.047 459.746 697.239 446.788 686.599 436.297 679.232 417.529 667.772 407.255 658.828 396.325 647.328 381.727 628.533 366.845 607.113 359.745 594.371 348.745 576.039 334.262 551.404 318.203 522.035 308.689 501.473 302.552 487.45 301.242 497.246 299.443 524.34 299.324 543.881 300.283 563.063 301.777 579.143 295.247 588.478 289.973 597.949 296.686 595.431 303.04 594.172 310.113 594.952 318.025 599.987 322.701 606.101 326.378 613.715 326.845 620.247 324.859 624.563 319.904 629.468 313.248 632.665 306.61 633.185 297.964 630.974 289.719 625.832 284.123 619.713 280.651 614.749 276.186 623.125 268.873 637.031 258.922 659.569 251.25 681.029 247.893 691.099 243.304 698.534 240.221 705.725 239.142 712.918 240.221 725.026 242.139 728.503 244.297 730.661 244.896 734.737 243.338 749.243 243.697 770.223 244.776 787.366 245.735 797.436 248.133 804.27 250.65 808.826 250.171 813.261 245.376 819.735 235.425 827.288 225.595 834.001 216.723 839.156 195.504 842.873 165.053 846.11 147.19 846.949 132.436 847.154"/><polygon class="a" points="709.813 694.715 694.042 702.008 668.19 712.727 640.103 722.893 624.155 728.075 621.303 728.961 625.86 733.232 632.116 738.052 641.622 742.027 655.394 745.822 677.335 749.54 697.414 752.01 714.471 754.453 722.545 755.327 731.597 754.6 734.873 756.749 739.218 767.024 748.154 785.176 754.991 797.465 764.796 811.899 771.181 820.276 777.561 825.779 781.822 831.509 782.158 834.661 780.814 838.375 774.875 845.117 769.713 853.442 766.888 861.546 767.408 869.531 771.458 876.35 780.626 879.16 798.087 880.136 815.343 882.512 828.72 885.217 845.851 889.532 867.718 895.959 906.387 907.82 944.719 919.609 968.732 927.881 985.956 934.447 1004.57 942.334 1015.583 949.761 1025.837 956.269 1032.296 959.125 1036.144 958.982 1039.446 956.364 1038.894 951.56 1036.682 944.942 1036.398 938.668 1039.446 935.023 1045.608 933.194 1053.265 932.923 1059.285 932.234 1062.709 929.43 1062.709 926.192 1060.049 921.773 1057.261 915.6 1056.943 910.759 1058.969 906.828 1062.709 903.894 1074.589 902.218 1084.246 900.586 1088.935 898.757 1090.138 895.862 1087.313 893.892 1078.212 889.747 1054.715 888.429 1030.258 886.99 992.615 883.034 957.968 878.838 916.848 872.844 888.675 867.928 866.856 862.174 857.026 857.858 847.315 849.346 839.728 840.058 833.983 827.49 828.156 808.526 823.585 791.504 817.889 769.876 814.828 754.828 813.668 741.359 811.31 731.505 804.82 723.859 794.273 717.219 785.112 709.196 777.316 700.57 773.931 703.088 766.153 705.021 753.089 706.542 743.18 706.542 734.459 703.312 730.028 697.956 728.862 692.343 730.413 686.768 732.372 683.228 723.399 687.667 709.813 694.715"/><polygon class="a" points="882.291 437.371 892.509 443.957 910.844 455.143 923.864 463.657 929.611 469.293 933.514 476.282 934.068 483.201 930.065 491.755 927.56 497.01 927.573 502.427 931.155 506.514 934.124 511.171 936.315 514.899 939.146 516.877 942.672 515.925 945.784 513.094 947.199 508.96 946.268 501.674 948.038 496.824 952.094 493.41 953.662 496.496 953.438 501.128 952.094 508.578 951.574 514.356 953.173 517.507 957.129 517.507 961.485 515.916 964.135 513.822 969.12 516.776 974.033 517.869 977.931 516.354 980.027 514.539 982.934 515.632 987.97 514.991 992.58 512.049 996.674 506.068 999.981 509.461 1002.265 510.121 1004.482 508.797 1007.121 502.867 1008.892 488.644 1007.612 478.345 1003.194 468.174 993.506 455.221 986.351 447.606 975.351 439.462 970.506 430.529 965.39 422.244 957.569 412.766 947.837 403.676 935.018 393.776 922.945 385.09 916.758 393.966 909.025 403.946 902.821 414.915 894.28 424.087 885.828 433.528 882.291 437.371"/><path class="a" d="M930.24493,169.475l-7.59143-13.8995L910.76815,143.457l-10.27974-7.55061-17.41706-7.45992-21.97417-7.48851L844.65,112.59637l-7.72224-7.188-4.85532-8.64759-4.34138-10.76912L822.58185,70.0638l-7.65-15.68883-7.82954-11.21873L793.84649,29.57717,783.79907,23.0286l-9.61363-4.19526h-7.55271l-13.101,3.79052L742.1763,27.41925,733.155,41.23591l-6.92334-8.54172L715.45942,25.596l-7.72368-2.55258-14.6052.23615-12.518,4.946-9.50115,8.58525L660.96868,52.56893,655.481,64.55582,648.75229,81.9167l-7.02338,5.39144-25.26986,15.10292-23.89423,12.43135-27.57754,15.4858-18.85814,16.33368-11.62153,14.57405-5.673,10.88469-3.30616,10.73578-1.18261,13.5998v14.02647l2.78874,19.013.91524,13.237-.00355,23.2538,1.09048,34.76917.83326,42.55494.44372,47.96482,5.33658,6.90188,2.61943,4.83964-1.27995,3.47593-7.47955,1.71814-12.23364,1.71419-22.64557,7.31433,6.5946,2.52505,7.24412,3.72486,4.76687,5.161,1.83866,6.13579-3.03938,4.62483-6.84867,4.0949-9.71307,2.42956-10.66967.71927-8.87145-1.61844-5.6945-3.41666-.41073-5.33487,4.41159-10.10194-25.3103,12.8918,1.75291,2.21284,14.04327,10.35462,12.20236,8.95278,10.80672,8.68067,18.35785,8.669,20.73321,6.17043,14.57386,3.33467,13.41152,2.17228,2.152,15.50049,6.62575,24.12637,9.41152,29.78952,9.63826,25.89219,4.78709,11.57971,5.75443-1.079,13.06743-7.43286,13.42706-6.95324,23.37741-16.18439,18.82186-14.14639L682.83354,533.571,704.173,513.5503l5.27487-6.71347,10.4862.83918,11.81113,2.04327,17.5911,4.13645,12.973,1.85255,8.879-1.67843,14.3861-5.0351,9.23115-2.51762,6.47376-.11985,8.86143,5.76588,6.65025,8.59717,4.32683,10.28429,2.45993,3.71933h2.3977l3.47665-1.75239,5.87435-7.43279,5.15594.5861,5.00191-.87869,4.58788-3.78347,1.363-3.59322,2.95279,2.09641H859.663l4.91524-3.29858,5.86138-6.94007,4.44866-7.92558-1.19881-10.66974-3.59651-8.63167-4.55561-4.67547-3.117-1.43859-1.19881-2.9971,11.50885-.47956,8.03227,2.3977,5.71017,5.72479,6.39816,9.15541,6.81968,9.09358,4.53053,3.92644,3.66091.322,3.25492-3.58123,1.63714-4.61416-2.22021-8.33816-4.91426-9.55713-6.04214-10.25946-6.24439-5.81152L884.582,455.5139l-14.94158-6.521-12.20336-3.67784-10.16364-1.98953H836.6657l-13.43937,2.7898-12.41561,5.36457-17.27961,11.55613-13.53125,8.43484-8.20421,3.29937-8.1375.819-14.65742-.69628-13.46506-2.20158,11.26085-14.5946L761.339,439.54986l22.33619-27.64129,12.35732-16.02495,4.64689-7.71557,2.223-6.52539-.15449-5.20316,20.62936-10.84794,19.06342-12.45689,21.98261-16.69542,11.90207-10.74751,16.75291-19.353,16.76409-21.96776-12.99011,3.5729-33.323,10.62384L836.915,303.64782l-25.94059,1.263-24.67968.94626-18.56687-.72486L736.61219,299.919,715.279,293.83235l-9.14376-4.385-14.112-10.24385-12.16543-11.51709-10.33144-12.783-11.0916-21.19176-14.54738-28.9913-8.51715-16.66288-4.8158-6.45815L624.7112,176.083l12.66612,2.84056,17.21158,4.20863,18.30273,7.79091,28.16127,13.11939,23.809,10.20684,21.71043,5.14475,26.05873,2.09345,31.39756-.349,19.33177-.935,28.62837-3.97563,32.26874-5.25979,21.80507-4.44268,8.65426-3.26578,11.111-7.1028,5.24991-6.01152,2.49391-9.09424ZM619.6545,448.513l-5.75442,4.97524-8.3919,4.97517-8.03227,1.60718-9.83049-.28845-7.85248-2.39769-5.57458-2.45762-2.89292-4.25591.37531-3.83629,4.31583-4.49568,7.91241-4.55555,8.03227-2.63747,6.83339-.64313,13.06736,4.17971,8.15219,2.51755.65637,3.95621Zm16.3942-332.60412-2.87724,3.68258-3.59651,2.56635-10.74462,4.36081-11.10431,3.102-7.50773.70754-3.23688-.39282-1.2542-2.068,1.02937-3.64149,3.5516-4.63437,6.06915-3.54771,15.51-5.84439,8.90142-1.70833,5.75442,1.079.58446,2.65242Zm181.28253-14.72051-3.38353,9.76687-5.71511,7.33632-7.79249,6.41383-7.91235,3.2048h-7.73256l-7.91235-1.64629-9.95041-5.7545L759.08,115.05472l-5.11005-8.0023-4.63055-9.71063-2.57405-.581-1.2031,12.0941L742.536,119.40961l-5.155,5.59552-8.3622,7.253-12.01817,5.51465-10.01034,1.27949-11.44893-.74-8.87145-3.59651-6.174-4.38755L673.063,121.5884l-5.33487-11.74863L664.55123,97.5516l-.41877-11.14923,3.35594-12.94751,5.93428-10.13025,5.6945-6.89332,8.87145-5.51471,8.9913-4.55562,12.34811-.47948,10.19012,1.079,10.07033,5.75442,7.55271,9.23108,4.18433,9.351,2.33579.959.31327-4.91524,3.23687-10.90945,6.59368-7.19308,9.71063-5.155,10.7896-1.91814,9.35093.47955,8.59361,3.08712,9.8326,6.144,7.229,9.71063,4.91531,9.351,3.23687,10.90945,1.05493,9.351Z"/><path class="b" d="M680.76188,268.54227l6.74718-6.26954,10.84954-6.174,12.10832-1.5585,18.17535,2.57751s11.74889,1.8965,11.87446,1.93017,13.54314,5.85967,13.54314,5.85967l15.49394,9.4037,3.86409-1.83749,11.02136-6.23385,9.94671-1.33236,16.604.84184,13.1869,4.976,11.82994,7.43206,9.86951,8.15213L856.946,299.919l-18.267,3.39208-21.3377,1.2897-26.01242,1.36979-24.21664-.65937-27.5734-4.63053-24.63623-6.4288-11.14925-5.57462-10.1602-7.55271Z"/><polygon class="c" points="626.248 177.035 631.583 182.789 637.506 192.237 643.106 203.192 648.372 213.657 654.721 226.188 661.232 239.056 666.949 250.704 674.861 261.793 680.316 268.447 685.585 264.06 693.803 257.897 700.948 255.765 708.369 254.903 721.345 256.083 735.219 257.855 750.297 262.994 759.75 268.447 770.448 275.16 776.131 270.553 783.776 266.469 790.873 265.028 804.276 264.908 818.183 267.787 830.019 274.001 842.581 283.669 851.031 291.884 856.946 299.919 874.581 295.044 892.025 289.483 910.291 283.669 916.658 276.246 918.935 272.161 918.107 268.627 911.693 266.828 897.794 262.049 887.536 257.118 881.399 250.875 878.346 241.773 879.264 229.364 882.681 220.734 887.716 214.439 893.876 209.753 868.415 213.18 841.77 217.826 822.439 220.523 798.342 221.872 770.874 221.872 752.067 220.673 736.542 217.975 721.856 213.48 707.46 206.789 687.089 197.295 670.905 189.743 654.589 183.132 637.997 178.953 626.248 177.035"/><polygon class="d" points="289.973 597.949 299.503 594.742 306.157 594.292 311.126 595.596 315.475 598.364 320.229 602.868 324.679 609.263 326.845 616.186 326.522 621.581 322.881 627.56 317.081 631.472 310.518 633.257 304.007 633.257 295.457 630.572 288.219 625.268 283.106 618.259 280.756 613.775 285.117 606.341 289.973 597.949"/><polygon class="d" points="736.385 680.718 731.518 684.464 728.863 691.988 730.223 697.791 734.434 703.051 741.259 705.678 750.004 706.542 758.672 705.628 768.956 704.145 773.817 702.745 777.291 700.895 769.125 691.197 760.793 682.966 753.36 677.83 744.89 675.672 736.385 680.718"/><polygon class="d" points="483.646 421.479 475.592 425.728 471.418 432.449 469.709 438.473 472.062 442.654 476.677 445.396 485.219 446.362 497.313 445.801 504.416 443.868 511.834 439.821 514.934 435.461 514.126 430.156 510.17 424.581 503.606 420.4 494.731 417.24 483.646 421.479"/><polygon class="d" points="597.834 434.593 587.855 436.045 580.033 439.687 574.098 443.823 571.583 448.04 572.66 453.308 578.234 457.175 588.574 459.378 599.004 460.071 606.962 457.804 615.953 451.465 620.671 447.869 620.671 442.564 597.834 434.593"/><polygon class="d" points="614.633 112.933 604.369 116.913 598.531 121.91 596.009 126.872 597.114 129.58 600.773 130.328 611.101 128.678 622.061 125.207 632.16 120.119 636.296 115.066 636.754 110.527 633.261 108.491 624.539 109.691 614.633 112.933"/><polygon class="e" points="515.745 207.867 495.784 214.948 471.397 227.211 438.579 250.712 415.971 267.037 397.738 287.209 369.77 318.922 333.905 359.641 315.833 378.741 305.349 391.429 296.935 404.372 284.586 424.349 281.966 429.751 281.966 436.944 286.256 450.077 300.834 484.658 318.985 524.1 343.201 567.139 367.178 607.66 380.365 626.841 395.231 646.742 408.538 660.768 431.985 676.599 445.295 685.55 459.746 697.239 471.957 704.886 479.389 706.201 485.744 704.526 495.574 698.172 511.545 688.145 529.174 675.627 538.561 690.387 550.002 708.662 557.664 726.41 563.648 740.01 568.951 741.359 588.842 738.144 625.013 727.796 654.868 717.549 683.525 706.542 727.85 686.184 745.946 675.288 765.994 660.604 779.194 646.781 799.282 620.364 816.195 596.679 831.194 571.914 844.861 544.481 855.931 519.966 851.435 517.869 848.394 523.021 844.861 525.53 834.844 525.205 829.452 532.972 825.975 534.724 822.019 533.091 818.094 523.816 814.706 516.547 807.633 509.474 797.683 506.357 787.721 508.409 779.101 518.226 762.736 531.713 733.904 551.554 706.81 566.06 674.322 580.326 649.266 589.677 626.967 596.048 602.271 596.679 588.125 596.679 570.502 584.762 553.958 570.975 537.174 552.033 525.425 531.053 512.358 505.158 499.544 475.314 488.741 469.912 476.313 460.071 469.709 454.91 459.573 460.071 446.302 465.117 436.711 466.662 431.676 466.316 428.327 463.783 424.46 458.321 419.538 449.172 417.559 439.075 419.538 410.869 422.595 371.577 426.521 349.429 432.036 325.572 437.31 312.624 443.544 303.992 450.56 300.79 459.969 300.089 468.285 304.877 479.432 315.33 489.445 326.207 492.431 309.807 495.334 281.214 501.628 251.903 509.541 225.648 515.745 207.867"/><polygon class="e" points="769.905 428.949 763.411 436.719 770.424 444.912 786.564 459.602 792.184 463.875 803.552 456.335 812.429 451.21 820.828 447.152 826.776 445.378 821.12 441.08 809.698 436.191 797.543 432.987 781.139 431.25 769.905 428.949"/><polygon class="e" points="866.669 448.097 867.386 428.043 867.988 393.426 867.566 334.443 857.505 342.266 841.95 353.864 841.393 370.596 839.066 398.971 834.471 425.325 830.891 443.957 839.702 443.058 850.502 443.957 860.472 446.412 866.669 448.097"/><polygon class="f" points="469.709 454.91 460.362 459.669 449.029 464.158 439.948 466.662 431.676 466.316 426.657 461.424 419.177 447.332 418.229 437.184 419.807 412.248 421.611 383.376 425.409 355.699 430.75 331.131 435.272 315.981 441.147 306.87 447.381 301.954 454.086 300.527 461.385 300.904 469.928 306.33 485.01 321.389 489.445 326.207 492.431 314.542 494.735 290.848 496.533 274.741 501.209 254.121 507.083 232.062 516.487 207.867 524.468 206.525 527.703 230.024 527.943 258.197 529.262 298.598 530.101 338.639 530.414 391.275 536.508 399.577 538.37 405.295 536.215 407.506 523.507 408.652 506.364 413.207 474.339 426.183 449.029 439.075 458.427 447.287 469.709 454.91"/><polygon class="f" points="500.413 475.683 519.215 481.82 536.386 486.28 554.911 489.622 557.914 509.714 566.638 538.583 576.069 567.839 585.248 590.156 586.447 595.311 575.777 588.598 558.958 575.141 546.885 564.022 537.174 552.033 524.826 530.454 511.11 502.251 500.413 475.683"/><polygon class="f" points="592.261 596.048 603.89 596.51 623.491 596.048 640.934 592.314 663.232 585.301 697.528 570.136 720.475 558.743 740.669 546.898 755.791 536.492 771.531 524.465 786.174 509.474 771.188 514.03 761.358 515.948 746.852 513.311 730.329 509.474 708.848 506.237 706.691 510.194 694.223 522.662 674.801 540.165 657.418 554.551 632.376 572.321 610.304 586.32 592.261 596.048"/><polygon class="f" points="763.006 437.176 773.615 447.816 787.553 459.872 792.184 463.875 784.136 468.774 774.605 474.348 763.658 476.326 750.149 475.067 735.536 472.691 744.844 461.041 763.006 437.176"/><polygon class="f" points="769.352 429.44 782.696 431.11 796.544 432.718 806.056 434.937 817.698 439.615 825.766 445.216 830.891 443.957 835.386 421.209 838.443 403.047 840.612 380.12 842.41 353.522 831.947 359.992 818.36 368.482 802.748 376.44 803.334 380.479 801.129 387.132 795.093 397.198 785.754 409.341 769.352 429.44"/><polygon class="f" points="870.44 449.117 883.817 435.713 897.247 422.019 906.598 408.442 922.945 385.09 925.924 380.085 924.637 376.44 913.754 368.942 897.579 357.171 885.332 344.596 872.882 328.989 867.566 334.443 867.988 369.15 867.899 398.546 866.669 448.097 870.44 449.117"/><path class="g" d="M855.937,519.95261c-7.96444,16.94562-15.01344,33.90149-23.88345,50.37775a383.83963,383.83963,0,0,1-33.7153,51.2686c-11.68459,15.23431-21.09741,30.22626-36.36109,42.38373-15.28243,12.1724-32.68123,21.23584-50.16968,29.76573-35.93453,17.52686-74.36052,31.06436-112.89294,41.7678-9.55858,2.65517-19.09334,5.01583-29.012,5.75445-7.30888.54428-6.392-1.33772-9.31376-8.11615q-2.6476-6.14243-5.32333-12.27225c-1.883-4.31992-3.48731-8.909-5.95789-12.9073-2.894-4.68347-5.15124-8.41952-8.38706-13.42922-2.45888-3.80685-4.59621-8.46261-7.05957-12.28457-4.47248-6.93917-4.4795-6.65492-10.695-2.02943a206.80232,206.80232,0,0,1-21.60145,13.8995c-6.77438,3.83979-18.88211,14.73825-27.09893,11.8149-9.29325-3.30633-18.59889-11.8631-26.14589-18.10889-7.18637-5.94734-15.2171-10.63717-23.22169-15.41184-18.10289-10.79821-31.19243-27.0301-43.37071-43.89234-4.93111-6.82768-10.51342-13.66392-14.60911-20.93346-4.48182-7.9549-8.78948-16.08753-13.66681-23.91693-11.45716-18.39175-22.15023-37.12963-32.42169-56.21328-8.78826-16.328-15.42149-34.0262-23.40475-50.7725a260.88911,260.88911,0,0,1-12.71732-30.52964,50.59026,50.59026,0,0,1-2.92556-13.52842c-.1962-4.636,1.40566-6.2737,4.01308-10.53114,5.36611-8.76185,10.72147-17.51305,16.27709-26.15513,5.92928-9.22332,12.38862-16.13491,20.06336-24.05253,26.47915-27.3171,50.20493-57.18044,75.88538-85.21856,6.76912-7.39058,13.15369-15.49149,21.17342-21.53778,7.72206-5.82186,15.40631-11.69483,23.21679-17.39771,8.53567-6.2324,16.8851-13.46929,25.94989-18.89852,9.91565-5.93886,21.18863-10.29162,31.58335-15.34049,8.58045-4.16765,14.61932-5.58845,24.2021-6.98154"/><path class="h" d="M770.94857,391.74784c21.07124-9.88728,42.89307-19.41141,62.33987-32.36878,17.35471-11.56341,38.05137-26.7734,51.51944-42.81421,8.977-10.69181,17.072-21.77853,25.48266-32.896-25.00432,7.57381-50.27632,18.06907-76.45325,19.82167-11.421.76466-22.79124,1.47346-34.23636,2.00054-14.23349.65549-27.79086.613-41.83893-1.57629-14.24863-2.22057-28.01278-5.11038-41.72142-9.81032-11.25557-3.85892-22.01425-12.802-30.72281-20.85686-18.85574-17.44035-27.42667-42.55276-39.42149-64.576-6.11036-11.219-12.62434-32.171-27.40513-33.7882-6.98474-.7642-13.08639,1.7471-19.30046,4.39517-7.89207,3.36313-13.90436,7.80833-11.96489,17.11778"/><path class="g" d="M530.71688,391.74784c-.46807-31.96214-.93662-63.9305-1.69389-95.88722-.39521-16.67814-1.50515-33.47552-1.01115-50.148.27347-9.2297-.90556-17.24634-2.38041-26.40828-1.35474-8.41582-1.285-16.388-1.285-24.94552,0-33.24341,29.09624-58.36063,55.97958-73.01407,14.94431-8.14577,30.23951-15.53232,45.13664-23.82764,6.28476-3.4996,12.0937-7.381,18.06191-11.42265,3.27153-2.21546,4.83028-2.99623,6.48554-6.18618,1.86575-3.59561,2.49609-8.04479,4.0289-11.83859,6.47457-16.02491,16.14118-37.19393,33.423-43.2399,7.41378-2.59368,16.14123-3.28183,23.68727-.95123,9.75977,3.01431,15.25428,10.22612,22.00569,17.3574,2.22671-3.69372,4.99716-9.38816,8.21031-12.25817,3.03343-2.70949,8.18061-4.7373,12.0195-6.29439,10.81248-4.38567,19.93489-5.959,30.40449.33937C800.775,33.241,814.10512,49.47166,821.49482,67.25942c2.1923,5.27709,4.13392,12.25241,5.89574,17.69013a72.35927,72.35927,0,0,0,4.68191,11.81119c5.55019,10.16431,12.51542,16.11287,22.32457,21.15364,16.819,8.643,37.97407,10.55922,52.78751,22.55927,8.10293,6.564,16.65584,14.53713,20.97926,24.02463,3.97027,8.71254,8.03945,20.8356.7324,28.69109-15.0532,16.18305-40.072,16.56937-60.5622,20.156-19.54849,3.42178-38.27271,7.16128-58.23029,7.62221-9.71147.2243-20.32864.77686-30.04394.66437a260.45643,260.45643,0,0,1-30.14272-1.78976c-11.07653-1.39718-20.18444-3.30441-30.29488-7.67165-9.90449-4.27827-19.76693-8.527-29.49258-13.19218-9.85406-4.72674-19.75573-9.253-29.75457-13.66924-8.83611-3.90272-18.7667-5.214-28.1241-7.5939-4.68549-1.19168-9.79247-2.035-14.54453-2.93326"/><path class="g" d="M301.68882,579.14293c-4.27465-30.59753-2.68474-61.10454.86291-91.69316"/><path class="g" d="M872.88242,328.9893c6.54974,7.89821,12.49216,16.48167,19.757,23.69924,7.46773,7.41915,16.41491,12.84109,24.90887,18.91588,2.06,1.4733,6.738,3.68691,7.858,5.8606,1.15176,2.23534.69032,2.626-1.10989,5.52376-3.22328,5.1884-7.13339,10.04734-10.68374,15.01944-5.68206,7.95744-10.29519,16.58976-16.82167,23.89135-8.44673,9.44991-17.34606,18.2926-26.35136,27.2175"/><path class="g" d="M516.48713,207.8666c-3.8998,9.28769-7.16458,18.12-10.30752,27.695-3.37974,10.29641-5.34994,20.64684-7.94916,31.14772-4.83919,19.55031-2.86375,40.54869-8.78528,59.4976"/><path class="g" d="M469.62779,454.91281c-7.01488,4.41259-37.60016,18.902-41.79541,7.41816-4.85931-13.30161,26.98675-26.28756,35.31717-30.56838,14.99663-7.70643,29.50111-14.38611,45.58266-19.482a82.20417,82.20417,0,0,1,21.62491-4.10861c15.95814-.7193,3.78039-11.34736.05666-16.8965-9.01715-13.43746-17.25466-27.28455-26.48643-40.597a214.41153,214.41153,0,0,1-12.09195-20.08507c-4.46582-8.19553-9.84157-12.89042-16.75129-19.309-5.57238-5.17633-9.55742-10.5013-17.63313-11.12816-8.71162-.67622-15.034,3.77007-19.30138,11.26913-8.13754,14.30019-9.96912,32.00407-13.166,47.89147-3.55245,17.6546-4.32037,36.31817-5.48987,54.27557-.56442,8.66636-1.41631,17.59234-1.24136,26.27153.20921,10.37867,4.787,16.12228,10.63009,24.28411"/><path class="g" d="M910.29054,283.66883c1.83816-2.42975,8.16007-8.482,8.64417-11.50786.76076-4.755-5.7282-4.719-9.39982-5.93206-9.10874-3.00947-17.26086-5.684-24.89475-11.608-6.05311-4.69727-7.44572-15.61492-5.43021-23.04176,1.14516-4.21973,1.721-8.62,4.25586-12.03383,2.95688-3.98217,7.23764-6.8065,10.86789-10.21482"/><path class="g" d="M534.96207,407.50615c5.94194,5.21475,12.509,9.70965,20.29824,11.82227,3.64868.98961,6.86559,2.02277,10.44625,3.22969,5.20067,1.753,10.6614,3.73474,15.779,5.727,15.471,6.02272,31.5448,11.13257,47.41478,16.16416,6.60009,2.09256,13.76993,4.82359,20.24573,7.18082a160.41671,160.41671,0,0,0,24.45641,6.29393,197.97861,197.97861,0,0,1,20.45934,4.759c8.17615,2.4738,16.42544,4.87019,24.58441,6.50541,16.08775,3.2243,33.07059,7.80924,49.55513,6.07931,4.94069-.51849,7.75287-1.24562,11.79848-3.79682,3.65822-2.3069,6.80162-4.72754,10.60977-6.74349,6.63723-3.51362,12.18781-8.79384,18.83769-12.5033,14.48192-8.07836,30.15315-11.65967,46.48968-7.31168,15.62524,4.15867,30.68365,9.13185,42.45011,20.9613,6.25883,6.29233,7.86057,14.53741,12.05857,21.94252,2.47992,4.37448,3.51771,7.49629.54753,12.37272-3.05494,5.01558-5.60984,4.55335-9.529.874-6.6027-6.19863-9.68748-13.67311-15.274-20.37356-6.05147-7.25807-15.7134-8.39134-24.609-7.12054.52148,3.18676,4.24632,4.12227,6.25164,6.34967a27.9907,27.9907,0,0,1,4.13521,6.97c1.91819,4.3479,3.1299,10.00233,2.181,14.771-1.54479,7.76355-13.68437,23.58451-22.85317,16.54532"/><path class="g" d="M554.67412,489.78713c1.59067,17.36488,7.17561,33.55188,12.3974,50.1534,5.1479,16.36664,10.15365,33.4078,17.46354,48.94131.522,1.1092,2.05252,6.06242,3.16362,6.72268,1.44168.85672.25312.22177,2.25758.14409,3.6665-.1421,9.05992-3.60731,12.49922-5.30451a220.16471,220.16471,0,0,0,22.38182-13.22323c14.69538-9.552,28.87942-19.41685,42.23526-30.78736,7.70982-6.56377,15.84812-12.64761,23.17886-19.6322,7.17414-6.83539,13.08628-12.40307,19.82661-20.07729"/><path class="g" d="M736.49246,472.024c11.17529-15.72133,23.5155-30.63,35.4054-45.82549,6.3799-8.15359,13.4956-15.91213,19.65171-24.2139,5.7526-7.75762,12.159-15.63615,11.76778-25.54508"/><path class="g" d="M842.44068,353.13471c-1.26356,15.58394-1.1547,30.3606-3.37463,45.83613-2.16317,15.07986-5.407,30.00534-8.1753,44.98663"/><path class="g" d="M867.56631,333.76345c0,38.525,1.35222,75.88686-.78374,114.334"/><path class="g" d="M763.65814,437.371c8.96534,9.93381,17.9401,17.66,28.30745,26.14785"/><path class="g" d="M769.90491,429.43982c10.25354,1.76174,20.76611,2.08276,30.95994,4.16571,9.9158,2.02615,17.60852,6.49858,26.41245,11.30693"/><path class="h" d="M819.202,131.59878a38.934,38.934,0,0,0-13.30717,5.57463"/><path class="h" d="M788.27281,142.10581c-11.88439-1.79814-21.49347-3.70031-32.1899,2.62031"/><path class="g" d="M612.04186,128.36191c6.82978-2.39642,20.08825-5.382,23.873-12.32316,6.06415-11.12133-11.19771-6.38818-15.96068-4.94019-7.58828,2.3069-17.738,5.29047-22.55984,12.27329C590.40773,133.4897,607.34447,130.08627,612.04186,128.36191Z"/><path class="g" d="M281.16838,614.21392c6.27069,16.26989,31.871,28.1506,43.798,9.6965,5.50727-8.52114-2.18662-20.05152-8.98352-25.38444-8.86885-6.9586-16.09852-4.34341-25.72517-.66108"/><path class="g" d="M777.31624,701.15646c-5.0814,3.33957-9.80361,3.55277-15.841,4.10738-5.7905.53194-13.78724,2.02527-19.58426.82078-4.30384-.89425-10.65515-4.92163-12.2661-8.96879-2.49819-6.27613,1.41326-10.879,5.2387-15.26581"/><path class="g" d="M499.54249,475.31372a584.8502,584.8502,0,0,0,25.3725,54.90266c4.75443,8.93689,9.65392,18.17462,15.67284,26.32578,5.08088,6.88081,12.29963,12.81848,18.6207,18.63422,9.1765,8.44289,18.367,14.6598,28.9164,21.33393"/><path class="g" d="M588.12493,596.51031c15.0014.27941,29.3097.55307,44.11744-2.1729,14.14461-2.60389,28.16816-7.986,41.40263-13.57576,26.36521-11.1357,52.88122-23.46868,76.50675-39.71123a205.07355,205.07355,0,0,0,37.5688-32.47263"/><path class="g" d="M588.12493,596.51031c-18.98578,26.5801-35.65572,60.93566-61.77309,81.414"/><path class="g" d="M588.60447,619.04857c-4.97907,1.99163-6.40613,2.738-6.83655,8.59777-.2469,3.36124.21973,6.973,2.36336,9.471,4.52942,5.27829,15.18288,7.23782,21.38132,4.41616a11.51128,11.51128,0,0,0,3.91179-17.90939C603.48365,616.9731,596.56825,617.30468,588.60447,619.04857Z"/><path class="g" d="M582.01083,676.83283c15.38234-11.03423-12.55247-26.47119-25.18508-17.96579-7.14856,4.813-2.877,12.54913,3.04487,15.744C566.93827,678.42408,575.6823,681.37248,582.01083,676.83283Z"/><path class="h" d="M491.0186,650.30842c10.50653,5.25326,19.65911,12.82677,30.74,17.123,10.83391,4.20049,24.49625,4.67778,35.905,5.71494"/><path class="g" d="M753.62824,106.723a26.58683,26.58683,0,0,0,7.62034,9.75913c11.04406,8.74575,24.21452,15.78523,38.28138,8.20353,15.47487-8.34058,21.54579-26.0572,18.01256-42.82735-3.37763-16.03164-13.11724-31.0717-28.25164-37.53534-14.61394-6.24135-37.043.39935-43.42412,15.56162C739.95847,73.92328,747.07936,92.48144,753.62824,106.723Z"/><path class="g" d="M741.69679,72.13614c-3.31348-8.68361-7.26931-15.8465-14.9885-21.42147-7.08664-5.11813-16.571-5.50732-25.30319-4.59631-17.50083,1.82582-34.95087,20.5282-36.96911,37.88584-1.87236,16.103,5.0069,37.47537,18.16177,47.65591,14.94368,11.56492,35.10725,8.507,49.45628-1.91056,3.41932-2.48247,8.29623-7.11963,10.36206-10.73862,2.29138-4.01412,3.54164-11.6452,4.0544-16.36649C747.69769,91.34482,744.89781,82.88036,741.69679,72.13614Z"/><path class="g" d="M598.4754,434.50283c-9.33638.5524-13.51791,2.07893-21.3328,7.40863-3.34468,2.28106-7.04728,4.33911-5.42225,9.212,1.35694,4.069,6.37051,5.82393,9.87088,6.92043,6.79435,2.12835,16.80906,3.01245,23.6575.49265,3.73927-1.37582,7.55254-5.03238,10.9719-7.24794,5.004-3.2423,4.61634-3.5541,4.26234-9.51536"/><path class="g" d="M475.73358,425.49546c-4.20092,6.936-10.42938,14.28776-.41713,18.85679,7.53681,3.43938,17.49985,1.69089,25.36783.41444,6.27707-1.01835,16.85878-6.09819,13.66182-14.05977-3.30395-8.228-12.61208-11.23729-20.15056-13.00412"/><path class="g" d="M856.946,299.919c-8.79144-12.4336-22.8908-25.701-37.44332-31.239-9.05594-3.44628-19.01491-4.08793-28.62976-3.65169-8.19414.37177-14.04855,4.86233-20.42465,9.66548"/><path class="h" d="M788.72143,291.46457c-6.85269-7.56465-13.463-14.052-22.374-19.08865-8.47574-4.79064-17.48968-11.44405-26.95745-13.60741-10.36057-2.36736-21.74547-4.29119-32.42081-3.783-12.07825.575-16.93588,5.8119-26.01617,13.28422"/><path class="h" d="M882.29148,437.371c11.06637,7.34577,22.25935,13.99721,33.64148,20.82339,8.40221,5.039,19.84949,13.63979,18.13455,25.00681-.83568,5.5391-6.60518,10.36812-6.90483,16.07569-.25728,4.90072,2.56206,5.39657,5.2097,8.5056,1.61726,1.89909,1.991,5.30739,3.77684,6.96667,5.291,4.916,11.438-1.42519,11.04519-6.60989-.29646-3.91325-1.72716-5.02912-.39062-8.78177,1.15175-3.23381,2.60134-4.2087,5.29-6.42729,6.18017,5.78-8.11213,26.66923,5.39479,24.40563,10.90714-1.8279,12.46334-16.12154,13.75673-25.27479"/><path class="g" d="M928.83627,468.17411c6.09493-7.61866,11.68032-15.60693,20.55951-20.0224,8.55521-4.25435,16.8305-5.42976,25.95562-7.85071"/><path class="h" d="M842.63942,481.6611c8.0138,6.96281,14.05987,14.50865,11.73756,25.9039-.83973,4.12048-2.55419,10.96308-5.08562,14.29646-4.28976,5.64877-8.51919,4.51812-14.44739,3.34371"/><path class="h" d="M822.79856,491.34176c8.75089,11.25115,19.64951,26.09654,8.49824,39.59146-7.176,8.68416-10.38371.65956-12.81408-6.23363-2.63313-7.46829-7.45362-13.29588-14.61758-16.58865-8.13744-3.74021-11.49061-.8807-19.52668,1.6031-6.77954,2.09543-15.499,6.44628-22.581,5.97424-13.96191-.93061-27.80051-6.51036-41.78286-8.00794-30.07464-3.22116-60.60509-3.36015-90.62871-7.32355-16.62614-2.19481-33.09552-5.71973-49.73308-7.92689-13.32508-1.76773-26.4653-2.41629-39.65892-5.30691-16.52122-3.61966-35.353-8.14652-50.16615-16.644-7.00277-4.01707-12.70056-10.52055-19.37558-15.09-7.92191-5.423-15.09215-9.61047-22.02712-16.31427"/><path class="g" d="M922.94455,385.09033c18.03075,13.08209,36.04727,24.52231,47.04577,44.48851,3.68542,6.69034,4.5327,10.19663,10.9357,14.25875,5.53829,3.51354,8.9315,7.29628,13.34313,12.23731,6.74,7.54875,12.49354,16.2754,14.32994,26.42107,1.17014,6.46473-.84412,38.85367-11.9255,23.57176"/><path class="h" d="M964.68169,514.26965c6.44815,4.29876,12.25509,5.95269,16.38327-1.96158,3.22995-6.19224,4.09934-14.19771,4.65644-21.05622"/><path class="h" d="M980.02689,514.989c14.55683,4.35148,20.59743-14.356,19.9008-26.34458"/><path class="h" d="M560.83168,733.71812c-33.9114,1.58862-66.45418-6.63669-98.73629-16.24893a213.89147,213.89147,0,0,1-41.95146-17.22726,225.27891,225.27891,0,0,1-22.76172-13.90562c-6.50523-4.58566-15.15866-8.5444-21.81224-7.945-10.66952.96122-28.28816,15.89859-38.24359,25.16277-6.2918,5.85493-12.82327,11.78426-18.37291,18.34193-2.64844,3.1295-5.99915,6.483-6.28059,10.85374-.282,4.37889,1.24642,7.49945.51282,12.30861-2.27936,14.94249-8.23681,30.33737-13.51583,44.45882a263.79306,263.79306,0,0,1-10.55955,24.824c-4.04055,8.16191,1.85206,11.67528,5.75274,18.55777,4.2362,7.47446,7.83623,13.75018,5.3651,22.47554-2.66848,9.42221-12.75082,8.10477-20.62376,7.73027-41.01371-1.951-82.98928,9.37887-123.03818,17.00316-22.57078,4.2969-44.49731,10.19139-66.62186,16.28079-8.11372,2.23316-14.82975,5.97233-22.39915,9.529-2.99588,1.40771-13.9353,6.809-15.56735,1.21754-1.90336-6.52095,10.64968-11.18108,2.50519-18.666-5.07275-4.66191-14.68986-.05025-19.22717-5.05468-4.61177-5.08656,4.84733-10.14544,6.0001-15.39284,1.96083-8.92569-6.6627-10.2315-13.45472-11.49053-3.51093-.65081-11.86322-.90374-13.97-4.11153-4.5539-6.93391,15.7141-7.00872,19.43853-6.90512,21.51859.59856,43.0318,1.81722,64.57163,1.87967,38.69245.11219,78.80743-.42178,116.77425-8.19192,7.47838-1.53049,13.07378-6.28855,19.27219-10.74056,5.11239-3.672,14.619-10.40585,16.53119-16.938.8966-3.06287-1.47338-5.4973-2.89041-8.70879-1.93467-4.38466-2.06046-8.40808-2.54261-13.22959-.8804-8.804-1.19845-17.57769-1.56127-26.42145a199.68276,199.68276,0,0,1,.59573-21.11124c.23076-3.56078,1.60782-8.66593.30417-11.70744-.55129-1.28619-2.60988-2.02949-3.28889-3.44624-1.14935-2.39811-1.45975-6.57989-1.7072-9.17075-.80094-8.38566,1.46609-15.71149,5.94252-22.47915,3.8987-5.89422,5.19978-13.23446,7.57117-19.91607,11.33692-31.94286,27.77113-61.78406,45.28342-90.728,4.082-6.74657,9.33026-12.64165,14.26519-18.78514"/><path d="M736.56007,85.18473c-5.68757-3.79651-13.39168-4.05624-17.73227,3.20991-3.233,5.412-3.10118,17.12745,2.26366,21.08733,4.20553,3.10418,14.70863.9293,17.84185-3.05066,2.47435-3.143,2.54772-8.11411,2.375-11.838C741.08966,89.87884,740.68056,87.93519,736.56007,85.18473Z"/><path d="M794.326,77.89059c-4.75415,4.54356-5.604,10.66989-1.38124,16.85359,3.8807,5.68282,12.38067,8.313,17.68088,3.26357,3.79359-3.61411,4.26059-13.45378,1.79712-18.03823C808.01464,71.76608,799.68957,72.76464,794.326,77.89059Z"/><path class="g" d="M744.104,676.56792c15.152.57068,21.13184,12.01988,30.79407,22.17387,7.86424,8.2645,17.81828,18.92279,27.97658,24.00527,13.06443,6.53649,10.14057,21.4729,12.16445,33.48225,2.0215,11.99515,5.6268,24.2988,8.75183,36.04772,3.64973,13.72155,7.15734,27.457,12.19253,40.73161,3.71941,9.80572,14.90138,20.938,24.02815,25.91969,6.54086,3.57021,15.80318,5.2769,22.98079,7.32022,14.366,4.0897,29.89288,5.58312,44.63351,8.0351,38.80169,6.45433,77.54191,10.27089,116.69931,13.65384,12.76881,1.10314,28.81722-.702,40.67981,4.76108,15.58915,7.17924-8.76124,9.42006-14.5222,9.927-13.31767,1.1718-17.45486,8.10327-10.02319,19.80882,9.154,14.41834-10.65264,8.84887-18.38219,11.4052-14.85787,4.91382,3.5,21.22226-4.69507,24.77957-8.39935,3.646-26.5271-13.51848-33.53681-16.63565-32.27336-14.35175-66.04408-24.99763-99.89935-34.877-34.50238-10.06823-69.41557-23.367-105.41284-26.93046-11.38335-1.12687-30.092,2.16372-31.64928-13.49234-.75829-7.62337,1.67415-11.67992,5.67971-17.87917,1.79605-2.77968,3.60261-6.054,5.81759-8.50932,1.77748-1.97036,3.83632-4.468,3.68645-7.73254-.156-3.39708-7.49016-8.44393-10.09913-11.38183-4.37766-4.92957-8.10328-10.71317-11.94541-16.07058-7.77549-10.842-13.22794-22.80725-19.39842-34.65981-1.53851-2.95526-4.58167-13.7642-7.17279-15.32918-2.15925-1.30414-8.90627-.13165-11.53623-.24366a73.68017,73.68017,0,0,1-9.43715-.70132c-25.16393-4.26757-52.67191-4.66162-76.5013-14.22694-6.37069-2.55725-9.57664-6.30641-14.67447-10.98847"/><path class="h" d="M875.64,881.81348c34.13247,8.44515,68.04858,17.96965,102.51673,24.98681,22.96085,4.67446,46.22187,8.45029,68.67,15.35741"/><path class="h" d="M206.23239,856.90386c-51.402,7.03646-103.519,9.49211-154.54072,19.41006"/></svg>